<svg width="864" height="455" viewBox="0 0 864 455" fill="none" xmlns="http://www.w3.org/2000/svg">
<path d="M397.26 273.56H445.659L485.349 199.371H488.866H864L827.994 266.862C813.926 293.322 805.218 309.567 777.083 309.567H712.942C710.43 309.567 708.085 310.237 705.908 311.576C703.731 312.916 702.056 314.758 700.716 317.103C686.649 343.563 658.514 407.034 551.668 407.034H302.137L397.26 273.56Z" fill="#DEEDF2"/>
<path d="M722.32 125.183H719.473V203.894H722.32V125.183Z" fill="#DEEDF2"/>
<path d="M711.267 130.709H690.836V173.414H711.267V130.709Z" fill="#DEEDF2"/>
<path d="M711.267 177.434H690.836V186.979H711.267V177.434Z" fill="#DEEDF2"/>
<path d="M642.27 199.037H652.485V52.668L642.27 56.6873V199.037Z" fill="white"/>
<path d="M608.941 199.037H619.157V84.6543L608.941 91.1856V199.037Z" fill="white"/>
<path d="M608.941 199.037H619.157V106.259L608.941 112.79V199.037Z" fill="white"/>
<path d="M681.959 52.668H652.484V198.87H681.959V52.668Z" fill="#9BC3D3"/>
<path d="M681.959 52.668H658.178V198.87H681.959V52.668Z" fill="#DEEDF2"/>
<path d="M647.295 84.6543H619.16V198.869H647.295V84.6543Z" fill="#C3DEE7"/>
<path d="M619.16 84.6543L642.271 199.037H619.16V84.6543Z" fill="#9BC3D3"/>
<path d="M658.178 75.7789L681.959 52.668H652.484L658.178 75.7789Z" fill="#C3DEE7"/>
<path d="M708.587 151.475C709.09 142.766 711.267 140.087 706.075 132.215C702.224 126.354 699.042 118.483 703.731 111.952C707.583 106.592 717.129 105.085 722.488 109.272C729.019 114.464 724.33 125.517 743.087 133.723C750.623 137.072 751.46 146.618 740.574 149.967C736.053 151.475 729.186 152.647 724.832 171.571C721.985 183.629 707.583 168.054 708.587 151.475Z" fill="#C3DEE7"/>
<path d="M317.881 3.59864C328.431 2.92876 336.637 33.9108 362.93 36.5903C387.046 39.1024 418.698 9.29264 438.794 12.977C489.538 22.0204 460.733 71.0892 502.768 89.176C527.554 99.8941 539.946 76.9507 565.067 85.4917C590.188 94.0327 586.503 111.115 592.197 115.469C597.891 119.656 612.126 186.476 612.126 186.476L571.598 257.651L352.212 214.611C352.212 214.611 350.872 149.465 334.963 140.255C312.522 127.359 286.396 137.91 273.668 140.924C273.668 140.924 216.896 111.617 236.658 60.2036C256.252 8.95769 269.649 -8.29175 317.881 3.59864Z" fill="#D8EDF2"/>
<path d="M573.271 81.9756C573.271 81.9756 577.457 118.149 561.715 127.862C547.145 133.556 544.131 131.379 544.131 131.379L573.271 81.9756Z" fill="#AF0000"/>
<path d="M553.343 128.03C553.677 128.03 570.09 121.332 599.564 139.753C625.522 155.328 629.039 157.505 629.039 157.505C629.039 157.505 628.872 174.922 619.158 180.281C597.555 174.587 580.473 164.874 579.133 165.209C577.793 165.711 579.803 176.429 577.458 181.621C575.951 184.97 568.415 201.047 563.558 211.598C560.879 217.125 557.194 219.469 557.194 219.469L560.376 238.728L552.673 242.58C552.673 242.58 484.01 227.34 484.01 226.001C484.01 224.661 486.522 190.999 486.522 189.827C481.833 178.439 464.416 130.71 553.343 128.03Z" fill="#76D0D0"/>
<path d="M573.271 81.9756C573.271 81.9756 577.457 118.149 561.715 127.862C547.145 133.556 544.131 131.379 544.131 131.379L573.271 81.9756Z" fill="#9C1552"/>
<path d="M569.421 79.9654C569.421 79.9654 560.21 96.7125 533.247 94.8703C529.898 90.1811 523.701 99.392 532.41 101.737C532.41 101.737 520.855 120.661 537.267 138.413C554.181 156.499 557.698 174.419 545.305 176.093C515.663 179.945 523.534 138.078 509.801 136.235C503.27 137.073 497.074 141.595 497.074 141.595C497.074 141.595 488.198 100.397 512.816 78.2907C537.434 56.1846 565.402 61.0413 571.598 73.2666C577.794 85.6594 570.928 90.0136 570.928 90.0136C570.928 90.0136 571.096 82.4775 569.421 79.9654Z" fill="#E60000"/>
<path d="M611.624 167.05C611.624 167.05 598.393 162.36 594.877 163.03C591.36 163.7 586.503 162.193 569.756 191.5C553.176 220.808 538.941 239.899 538.941 239.899L627.031 262.675C627.031 262.675 622.174 186.979 619.327 178.103C616.48 169.059 611.624 167.05 611.624 167.05Z" fill="#A44271"/>
<path d="M559.206 221.311C559.206 221.311 566.742 240.235 558.201 239.23C549.66 238.225 542.961 222.315 544.469 205.233C550.665 206.406 559.206 221.311 559.206 221.311Z" fill="#0093A9"/>
<path d="M628.705 143.102C627.198 143.437 625.691 144.442 625.021 145.949L609.614 173.749C609.614 173.749 608.106 176.261 610.284 176.428C612.461 176.596 628.37 171.572 629.71 170.734C631.05 169.897 646.29 144.944 647.462 143.604C648.467 142.264 648.802 138.58 643.61 139.752C639.758 140.59 632.39 142.264 628.705 143.102Z" fill="white"/>
<path d="M639.59 155.998L638.083 158.343C638.083 158.343 634.566 160.52 629.039 160.855C624.35 160.52 614.804 173.582 621.838 175.927C628.872 178.104 631.886 178.774 633.561 177.769C635.403 176.764 635.236 174.922 636.24 174.42C637.413 173.917 640.092 172.41 638.92 169.396C639.59 167.888 641.767 167.554 641.934 166.716C642.102 165.711 642.772 164.874 641.265 163.534C642.269 161.022 643.777 161.022 639.59 155.998Z" fill="#FF9986"/>
<path d="M622.675 152.647C622.675 152.647 604.085 165.542 601.406 167.887C598.726 170.399 593.87 176.428 591.693 178.437C589.516 180.447 544.466 205.065 544.466 205.065C544.466 205.065 542.624 218.128 547.983 229.348C557.696 220.975 596.047 193.677 598.726 192.17C601.406 190.495 611.621 187.648 616.478 184.969C621.335 182.289 631.718 178.94 631.886 172.074C631.886 172.074 637.412 168.389 635.737 166.38C634.063 164.37 631.216 167.049 631.216 167.049C631.216 167.049 637.077 163.7 635.402 161.355C633.56 159.178 612.794 169.059 612.794 169.059C612.794 169.059 610.282 169.227 612.961 166.715C615.641 164.202 624.014 156.666 625.019 155.829C626.024 154.992 627.866 153.317 626.861 151.977C625.522 150.637 622.675 152.647 622.675 152.647Z" fill="#FDB6A8"/>
<path d="M579.637 93.3627C578.297 92.6929 576.958 92.5254 575.786 92.5254C570.426 92.5254 565.402 96.7121 564.565 96.8796C561.885 94.535 558.201 93.8652 555.019 93.8652C551.167 93.8652 547.985 94.87 547.985 94.87C547.985 94.87 542.124 107.095 551.837 107.095C561.55 107.095 563.393 98.5543 563.393 98.5543C563.393 98.5543 563.56 98.5543 563.895 98.5543C564.23 98.5543 564.9 98.5543 565.57 98.7218C566.407 103.913 568.082 105.756 569.757 105.756C574.278 105.588 579.972 93.5302 579.637 93.3627ZM562.053 98.2194C562.053 98.5543 560.378 105.756 551.837 105.756C549.995 105.756 548.823 105.253 548.153 104.248C546.813 102.071 548.153 97.8844 548.99 95.8748C549.995 95.5399 552.34 95.2049 555.019 95.0374C558.034 95.0374 560.378 95.5399 562.22 96.7122C562.22 97.0471 562.053 97.382 562.053 97.5495V98.2194ZM569.757 104.248C568.584 104.248 567.412 102.071 566.742 98.3869L566.575 97.5495V97.2146C566.575 97.2146 566.742 97.2146 566.742 97.0471C568.752 95.8748 572.101 93.8652 575.618 93.8652C576.455 93.8652 577.125 94.0326 577.963 94.2001C576.79 97.0471 572.436 104.248 569.757 104.248Z" fill="white"/>
<path d="M625.188 85.8269C625.188 83.8173 626.862 82.1426 628.872 82.1426C630.881 82.1426 632.556 83.8173 632.556 85.8269C632.556 87.8366 630.881 89.5113 628.872 89.5113C626.695 89.3438 625.188 87.8366 625.188 85.8269Z" fill="#D8ECF1"/>
<path d="M611.624 167.05C611.624 167.05 598.393 162.36 594.877 163.03C591.36 163.7 586.503 162.193 569.756 191.5C553.176 220.808 538.941 239.899 538.941 239.899L622.007 257.819C622.007 257.819 622.174 186.979 619.327 178.103C616.48 169.059 611.624 167.05 611.624 167.05Z" fill="#A44271"/>
<path d="M553.343 128.03C553.677 128.03 570.09 121.332 599.564 139.753C625.522 155.328 629.039 157.505 629.039 157.505C629.039 157.505 628.872 174.922 619.158 180.281C597.555 174.587 580.473 164.874 579.133 165.209C577.793 165.711 579.803 176.429 577.458 181.621C575.951 184.97 568.415 201.047 563.558 211.598C560.879 217.125 557.194 219.469 557.194 219.469L560.376 238.728L552.673 242.58C552.673 242.58 484.01 227.34 484.01 226.001C484.01 224.661 486.522 190.999 486.522 189.827C481.833 178.439 464.416 130.71 553.343 128.03Z" fill="#76D0D0"/>
<path d="M553.513 120.158C553.345 122.502 554.518 144.106 545.474 148.628C536.598 153.15 509.636 155.996 491.549 146.116C502.434 134.728 520.186 133.221 520.186 133.221C520.186 133.221 531.072 104.583 529.23 103.411C527.387 102.239 521.024 95.8746 525.043 92.0228C529.23 88.171 542.962 92.0228 542.962 92.0228C542.962 92.0228 569.925 76.2806 570.427 76.9505C570.93 77.6204 572.27 84.1517 572.27 84.1517L566.408 112.454H564.064C564.064 112.454 558.537 127.192 550.833 126.522C541.12 125.684 535.259 111.114 535.259 111.114" fill="#FDB6A8"/>
<path d="M569.421 79.9654C569.421 79.9654 560.21 96.7125 533.247 94.8703C529.898 90.1811 523.701 99.392 532.41 101.737C532.41 101.737 520.855 120.661 537.267 138.413C554.181 156.499 557.698 174.419 545.305 176.093C515.663 179.945 523.534 138.078 509.801 136.235C503.27 137.073 497.074 141.595 497.074 141.595C497.074 141.595 488.198 100.397 512.816 78.2907C537.434 56.1846 565.402 61.0413 571.598 73.2666C577.794 85.6594 570.928 90.0136 570.928 90.0136C570.928 90.0136 571.096 82.4775 569.421 79.9654Z" fill="#BA4072"/>
<path d="M611.624 167.05C611.624 167.05 598.393 162.36 594.877 163.03C591.36 163.7 586.503 162.193 569.756 191.5C553.176 220.808 538.941 239.899 538.941 239.899L637.246 264.015C637.246 264.015 622.174 187.146 619.327 178.103C616.48 169.059 611.624 167.05 611.624 167.05Z" fill="#E60000"/>
<path d="M559.206 221.311C559.206 221.311 566.742 240.235 558.201 239.23C549.66 238.225 542.961 222.315 544.469 205.233C550.665 206.406 559.206 221.311 559.206 221.311Z" fill="#0093A9"/>
<path d="M628.706 143.102C627.198 143.437 625.691 144.442 625.021 145.949L607.772 174.251C607.772 174.251 606.265 176.763 608.442 176.931C610.619 177.098 628.371 171.572 629.71 170.734C631.05 169.897 646.29 144.944 647.462 143.604C648.467 142.264 648.802 138.58 643.611 139.752C639.759 140.59 632.39 142.264 628.706 143.102Z" fill="white"/>
<path d="M639.59 155.998L638.083 158.343C638.083 158.343 634.566 160.52 629.039 160.855C624.35 160.52 614.804 173.582 621.838 175.927C628.872 178.104 631.886 178.774 633.561 177.769C635.403 176.764 635.236 174.922 636.24 174.42C637.413 173.917 640.092 172.41 638.92 169.396C639.59 167.888 641.767 167.554 641.934 166.716C642.102 165.711 642.772 164.874 641.265 163.534C642.269 161.022 643.777 161.022 639.59 155.998Z" fill="#FF9986"/>
<path d="M579.637 93.3627C578.297 92.6929 576.958 92.5254 575.786 92.5254C570.426 92.5254 565.402 96.7121 564.565 96.8796C561.885 94.535 558.201 93.8652 555.019 93.8652C551.167 93.8652 547.985 94.87 547.985 94.87C547.985 94.87 542.124 107.095 551.837 107.095C561.55 107.095 563.393 98.5543 563.393 98.5543C563.393 98.5543 563.56 98.5543 563.895 98.5543C564.23 98.5543 564.9 98.5543 565.57 98.7218C566.407 103.913 568.082 105.756 569.757 105.756C574.278 105.588 579.972 93.5302 579.637 93.3627ZM562.053 98.2194C562.053 98.5543 560.378 105.756 551.837 105.756C549.995 105.756 548.823 105.253 548.153 104.248C546.813 102.071 548.153 97.8844 548.99 95.8748C549.995 95.5399 552.34 95.2049 555.019 95.0374C558.034 95.0374 560.378 95.5399 562.22 96.7122C562.22 97.0471 562.053 97.382 562.053 97.5495V98.2194ZM569.757 104.248C568.584 104.248 567.412 102.071 566.742 98.3869L566.575 97.5495V97.2146C566.575 97.2146 566.742 97.2146 566.742 97.0471C568.752 95.8748 572.101 93.8652 575.618 93.8652C576.455 93.8652 577.125 94.0326 577.963 94.2001C576.79 97.0471 572.436 104.248 569.757 104.248Z" fill="white"/>
<path d="M560.211 239.061L560.546 238.894C560.379 238.894 560.378 238.894 560.211 239.061Z" fill="#76D0D0"/>
<path d="M558.201 239.229C553.847 238.726 549.995 234.205 547.315 227.841C538.439 230.688 535.592 238.559 535.09 239.229C543.128 241.071 551.837 243.416 551.837 243.416L560.21 239.061C559.541 239.229 559.038 239.396 558.201 239.229Z" fill="#76D0D0"/>
<path d="M563.895 112.455L564.23 101.234L561.718 108.603C561.048 110.445 562.053 112.287 563.895 112.455Z" fill="#FF9986"/>
<path d="M553.511 120.158C553.344 122.503 554.516 144.106 545.473 148.628L553.511 120.158Z" fill="#FDB6A8"/>
<path d="M550.663 126.522C542.959 125.852 537.6 116.473 535.758 112.789C541.117 133.053 553.175 130.876 553.175 130.876L553.342 126.187C552.505 126.522 551.5 126.689 550.663 126.522Z" fill="#FF9986"/>
<path d="M619.998 179.945L592.7 190.663L556.861 217.794C557.699 219.133 559.039 221.31 559.039 221.31C559.039 221.31 559.708 222.818 560.378 225.162C568.752 218.296 595.212 198.2 599.399 195.018C603.921 191.668 615.309 187.314 620.5 182.96C620.333 180.783 619.998 179.945 619.998 179.945Z" fill="#AF0000"/>
<path d="M616.481 152.647C616.481 152.647 597.892 165.542 595.213 167.887C592.533 170.399 587.676 176.428 585.499 178.437C583.322 180.447 538.273 205.065 538.273 205.065C538.273 205.065 536.43 218.128 541.789 229.348C551.503 220.975 589.854 193.677 592.533 192.17C595.213 190.495 605.428 187.648 610.285 184.969C615.141 182.289 625.525 178.94 625.692 172.074C625.692 172.074 631.219 168.389 629.544 166.38C627.869 164.37 625.022 167.049 625.022 167.049C625.022 167.049 630.884 163.7 629.209 161.355C627.534 159.011 606.601 169.059 606.601 169.059C606.601 169.059 604.088 169.227 606.768 166.715C609.448 164.202 617.821 156.666 618.826 155.829C619.831 154.992 621.673 153.317 620.668 151.977C619.328 150.637 616.481 152.647 616.481 152.647Z" fill="#FDB6A8"/>
<path d="M707.919 271.551L493.222 221.645L244.863 221.979C248.213 224.994 299.961 273.225 344.676 314.088L439.799 391.627C480.997 376.722 683.133 285.451 708.086 278.919C711.771 277.915 711.771 272.556 707.919 271.551Z" fill="white"/>
<path d="M508.461 231.527C508.461 233.537 500.925 235.044 491.714 235.212C482.503 235.212 474.967 233.705 474.967 231.695C474.967 229.685 482.503 228.178 491.714 228.011C500.925 227.843 508.461 229.518 508.461 231.527Z" fill="#9BC3D3"/>
<path d="M500.592 203.727C499.252 203.057 497.577 202.889 496.07 203.224C493.056 203.894 489.874 206.239 488.031 209.923C485.184 215.449 486.189 221.646 490.209 223.823C490.544 223.99 490.711 224.158 491.046 224.158C491.883 224.493 492.721 224.493 493.558 224.493C497.075 224.325 500.759 221.813 502.936 217.627C503.271 216.957 503.606 216.287 503.774 215.617C505.448 210.593 504.276 205.569 500.592 203.727ZM500.592 216.454C499.085 219.469 496.405 221.143 493.893 221.311C493.223 221.311 492.386 221.143 491.716 220.809C491.381 220.641 491.213 220.474 490.878 220.306C488.701 218.464 488.366 214.612 490.209 211.263C491.548 208.751 493.558 207.076 495.568 206.574C496.74 206.239 497.912 206.406 498.917 206.908C501.597 208.248 502.266 212.1 500.759 215.617C500.927 215.952 500.759 216.119 500.592 216.454Z" fill="#C3DEE7"/>
<path d="M496.906 197.194C496.906 197.362 496.906 197.362 496.906 197.194L496.236 203.056L495.901 206.405L494.729 215.449L494.059 221.143L493.724 224.492L493.557 226.167C493.389 228.009 492.552 229.851 491.212 231.023C489.537 232.698 487.36 233.87 484.848 233.87H480.829C476.81 233.87 473.293 231.191 472.288 227.339C472.288 227.004 472.12 226.669 472.12 226.334L468.938 204.563L467.934 197.362L496.906 197.194Z" fill="#FDD114"/>
<path d="M496.907 197.194C496.907 197.362 496.907 197.362 496.907 197.194L496.237 203.056L495.902 206.405L494.73 215.449L494.06 221.143L493.725 224.492L493.557 226.167C493.39 228.009 492.553 229.851 491.213 231.023C489.538 232.698 487.361 233.87 484.849 233.87H482.672C483.677 233.368 484.514 232.698 485.351 231.861C486.524 230.521 487.361 228.846 487.696 227.004L487.864 225.329L488.198 221.98L488.868 216.286L490.041 207.243L490.376 203.893L491.045 198.032" fill="white"/>
<path d="M496.905 197.195C496.905 197.698 495.397 198.033 493.053 198.368C490.373 198.702 486.689 198.87 482.502 198.87C478.315 198.87 474.631 198.702 471.952 198.368C469.439 198.033 468.1 197.698 468.1 197.195C468.1 196.358 474.631 195.521 482.502 195.521C490.373 195.688 496.905 196.358 496.905 197.195Z" fill="#ECAA05"/>
<g opacity="0.6">
<g opacity="0.6">
<g opacity="0.6">
<path opacity="0.6" d="M516.836 151.812L497.242 172.746C493.223 177.1 490.878 182.794 490.543 188.656L490.208 195.857L490.041 198.537C487.864 198.704 485.184 198.872 482.337 198.872C481.835 198.872 481.5 198.872 480.998 198.872L479.993 195.69L474.131 178.105C470.614 167.555 474.466 155.999 483.677 149.803C489.874 145.616 493.558 139.085 494.395 132.051C494.898 128.199 494.395 124.18 492.888 120.328L479.825 86.8339C478.318 83.1496 480.328 78.7953 484.18 77.623C485.017 77.2881 486.022 77.2881 487.027 77.2881C489.036 77.4556 490.878 78.6279 492.051 80.3026L519.348 120.663C525.712 130.376 524.707 143.271 516.836 151.812Z" fill="white"/>
</g>
</g>
</g>
<path d="M763.853 245.426L759.834 252.292L763.686 259.158H763.853L767.872 252.292L763.853 245.426Z" fill="white"/>
<path d="M790.146 68.9131L786.127 75.7794L790.146 82.6457H790.314L794.166 75.7794L790.146 68.9131Z" fill="#FDD114"/>
<path d="M601.242 115.805C601.242 114.8 600.405 113.795 599.232 113.795C598.228 113.795 597.223 114.632 597.223 115.805C597.223 116.809 598.06 117.814 599.232 117.814C600.237 117.647 601.242 116.809 601.242 115.805Z" fill="#DAE8EE"/>
<path d="M171.343 91.3538C172.18 91.3538 173.017 91.5213 173.855 91.8563C180.721 93.8659 184.74 100.9 182.898 107.766C181.558 112.623 177.707 116.139 173.017 117.144C171.845 117.312 170.84 117.982 170.003 118.986C166.821 122.838 161.462 124.513 156.27 123.006C149.572 120.996 145.552 113.795 147.562 106.929V106.761C148.232 104.584 147.394 102.239 145.552 100.9C141.365 97.7177 139.523 92.1912 141.031 86.9996C143.04 80.1333 150.241 76.114 157.108 78.1237C161.797 79.4634 165.146 83.1478 166.151 87.502C166.821 89.5117 168.831 91.1864 171.343 91.3538Z" fill="#C3DEE7"/>
<path d="M151.247 107.096C152.085 106.761 152.755 106.426 153.759 106.259C160.793 104.584 167.827 108.603 169.502 115.637C170.841 120.494 168.999 125.518 165.65 128.532C164.812 129.37 164.143 130.375 163.975 131.547C162.97 136.571 159.286 140.758 154.094 141.93C147.228 143.437 140.194 139.251 138.52 132.217V132.049C138.017 129.872 136.175 128.198 133.83 127.863C128.639 127.193 124.285 123.341 122.945 117.982C121.27 110.948 125.624 103.914 132.491 102.24C137.18 101.067 141.869 102.575 145.051 105.924C146.558 107.599 149.07 108.101 151.247 107.096Z" fill="#9BC3D3"/>
<path d="M122.776 117.981C124.116 123.34 128.47 127.025 133.662 127.862C136.006 128.197 137.848 129.872 138.351 132.049V132.216C138.853 134.393 139.858 136.235 141.198 137.743C141.7 138.413 142.37 138.915 143.04 139.417C145.887 141.594 149.739 142.599 153.59 141.762H153.758C158.782 140.59 162.634 136.57 163.639 131.881C163.639 131.714 163.639 131.546 163.639 131.546C163.806 130.374 164.476 129.369 165.313 128.532C168.83 125.35 170.505 120.493 169.165 115.637C167.323 108.603 160.289 104.584 153.423 106.258C152.586 106.426 151.748 106.761 150.911 107.096C148.734 108.1 146.222 107.765 144.547 105.923C141.365 102.741 136.676 101.067 131.987 102.239C125.456 103.914 121.101 110.947 122.776 117.981Z" fill="#C3DEE7"/>
<path d="M138.52 138.412L143.041 139.417L153.592 141.762H153.759C158.784 140.589 162.635 136.57 163.64 131.881L141.199 137.742L138.52 138.412Z" fill="#9BC3D3"/>
<path d="M167.321 137.743L157.943 170.902H151.077H144.21L134.832 137.743H167.321Z" fill="#DEEDF2"/>
<path d="M57.6289 201.883H313.189V169.227H124.617L57.6289 201.883Z" fill="#DEEDF2"/>
<path d="M225.936 180.785L151.412 180.617L128.636 192.173L127.799 194.015L206.342 194.182L225.099 182.627L225.936 180.785Z" fill="#C3DEE7"/>
<path d="M206.008 190.999H130.479L156.101 178.271L227.611 178.439L206.008 190.999Z" fill="white"/>
<path d="M341.158 139.584C341.996 140.756 342.833 141.929 343.503 143.101C342.833 141.929 341.996 140.756 341.158 139.584Z" fill="#C80100"/>
<path d="M382.355 291.815L287.566 268.034C268.977 263.345 255.915 246.598 255.915 227.339L255.412 153.485C255.412 127.192 277.183 109.272 305.151 112.454L400.442 123.172C420.203 126.857 434.605 144.274 434.605 164.37V251.12C434.605 278.585 408.815 298.514 382.355 291.815Z" fill="#87C4D5"/>
<path d="M406.47 300.19C404.963 285.955 396.589 243.92 391.398 225.163C390.058 185.64 390.728 172.577 380.345 148.964C357.904 98.5552 282.877 98.7227 282.877 98.7227C282.877 98.7227 227.277 98.5552 217.564 129.37C209.692 153.82 217.899 187.984 190.601 226.67C183.735 236.551 174.189 245.427 161.963 255.977C152.92 261.504 164.475 269.04 164.475 269.04L182.227 285.117C182.227 285.117 214.717 272.055 240.172 235.211C248.546 264.518 251.56 271.385 259.599 305.884C332.783 343.397 407.977 310.573 406.47 300.19Z" fill="#BA4072"/>
<path d="M217.398 81.1377L225.772 129.369C225.772 129.369 232.136 128.699 232.806 128.029C238.332 139.25 249.553 151.14 258.596 144.776C258.596 144.776 261.611 150.136 269.147 158.007C283.717 168.055 311.014 141.929 304.818 118.149C304.148 114.632 293.932 100.732 293.932 100.732C293.932 100.732 287.401 85.9944 288.071 85.3245C288.741 84.6546 275.511 72.0943 275.511 72.0943L248.213 65.0605L217.398 81.1377Z" fill="#FDB6A8"/>
<path d="M209.692 59.5342C205.505 61.7113 201.318 63.7209 201.318 70.7547C201.318 79.1282 209.692 81.3053 211.869 84.6547C214.046 88.1716 211.199 94.368 219.573 92.3584C218.903 88.8415 219.573 91.6885 218.903 89.5114C218.233 87.3342 221.08 87.3342 223.09 87.3342C225.267 87.3342 235.65 88.674 242.684 83.8174C249.717 78.9607 256.751 71.7595 263.617 76.1137C271.154 80.9704 257.253 97.215 268.641 97.215C279.025 97.215 271.991 89.0089 274.67 84.4872C278.355 78.2908 286.393 82.3101 286.561 88.3391C286.728 94.368 279.192 100.229 283.881 103.411C290.245 107.598 296.944 98.0523 298.619 94.368C313.356 61.7113 287.398 8.45568 228.281 33.9112C200.816 45.8016 218.065 55.3474 209.692 59.5342Z" fill="#607295"/>
<path d="M258.762 144.777C258.762 144.777 275.509 138.078 279.696 113.46C279.696 136.068 269.48 146.787 264.456 152.146C261.274 148.126 258.762 144.777 258.762 144.777Z" fill="#FF9986"/>
<path d="M234.98 108.101L233.641 107.599L232.971 128.03C233.808 129.537 234.645 131.044 235.483 132.552C238.665 129.035 240.172 123.676 238.665 119.322L234.98 108.101Z" fill="#FF9986"/>
<path d="M197.134 216.119C184.238 238.728 168.664 249.279 160.458 255.307C117.25 286.122 107.704 306.721 116.078 310.238C115.576 314.09 118.59 333.181 190.1 282.605C214.718 268.035 226.106 254.47 232.805 246.264C219.575 203.559 197.134 216.119 197.134 216.119Z" fill="#FDB6A8"/>
<path d="M335.129 262.843C335.631 237.722 371.47 233.201 381.351 239.062C381.686 249.613 381.686 253.632 381.351 264.015C380.346 283.274 388.217 303.036 281.706 341.219C287.232 328.491 273.332 319.113 269.48 320.285C320.726 282.27 334.794 279.757 335.129 262.843Z" fill="#FDB6A8"/>
<path d="M520.016 51.8304C520.016 50.1557 521.355 48.9834 522.863 48.9834C524.37 48.9834 525.71 50.3232 525.71 51.8304C525.71 53.3376 524.37 54.6774 522.863 54.6774C521.355 54.6774 520.016 53.5051 520.016 51.8304Z" fill="white"/>
<path d="M413.004 377.057L311.852 413.9V429.475H322.402L423.387 383.923L413.004 377.057Z" fill="#C3DEE7"/>
<path d="M327.09 340.382L208.354 378.062L260.939 454.596L422.883 381.747L357.067 335.357C346.684 337.535 336.803 339.209 327.09 340.382Z" fill="white"/>
<path d="M231.296 339.712L178.543 370.862L210.53 381.58L212.707 384.762L289.743 410.217L382.02 328.324C326.587 346.244 273.164 348.086 231.296 339.712Z" fill="#C3DEE7"/>
<path d="M230.962 337.032L175.529 369.856L289.409 407.537L375.824 329.998C320.391 344.903 272.83 345.405 230.962 337.032Z" fill="white"/>
<path d="M14.2538 361.651L129.976 306.051L277.015 340.382C278.857 340.717 279.192 343.062 277.685 344.067L174.356 411.222C172.011 412.729 169.331 413.064 166.652 412.227L14.4214 364.33C13.0816 363.996 13.0815 362.321 14.2538 361.651Z" fill="#9BC3D3"/>
<path d="M55.6211 347.583C55.6211 347.583 187.755 386.102 193.952 387.441C200.316 388.781 204 387.441 217.063 379.068C234.814 367.847 274.337 343.397 277.854 341.387C281.371 339.21 275.677 336.53 265.964 334.353C256.251 332.176 165.984 309.903 149.907 306.386C117.92 320.286 55.6211 347.583 55.6211 347.583Z" fill="white"/>
<path d="M118.924 326.649C120.096 326.984 189.931 344.234 189.931 344.234L145.384 369.019L118.924 326.649Z" fill="#DEEDF2"/>
<path d="M8.22636 244.755C8.22636 245.258 7.72397 245.76 6.88662 245.76C6.21674 245.76 5.54688 245.425 5.54688 244.923C5.54688 244.42 6.04927 243.918 6.88662 243.918C7.72397 243.918 8.22636 244.253 8.22636 244.755Z" fill="white"/>
<path d="M363.432 349.93L354.891 350.767L477.311 386.606L538.606 319.115C538.606 319.115 512.48 312.752 482.168 305.383C438.961 327.824 399.438 342.059 363.432 349.93Z" fill="#C3DEE7"/>
<path d="M362.928 347.752L354.387 348.589L476.305 384.093L538.102 316.602C538.102 316.602 511.976 310.573 481.832 303.037C438.457 325.813 399.101 340.048 362.928 347.752Z" fill="white"/>
<path opacity="0.8" d="M379.677 330.5L344.676 346.577C344.174 346.912 344.006 347.582 344.508 347.917L396.424 373.54C396.592 373.707 396.927 373.707 397.094 373.54L429.583 354.615C430.086 354.28 430.086 353.611 429.583 353.276L380.012 330.5C380.18 330.332 380.012 330.332 379.677 330.5Z" fill="#0093A9"/>
<path d="M379.843 328.155L346.014 343.73C345.009 344.232 345.009 345.572 345.847 345.907L396.758 371.027C397.093 371.195 397.595 371.195 397.93 371.027L429.415 352.773C430.252 352.271 430.252 350.931 429.415 350.596L380.848 328.322C380.513 327.987 380.178 327.987 379.843 328.155Z" fill="#76D0D0"/>
<path d="M365.606 345.572C365.439 346.577 364.099 347.414 362.759 347.247C361.42 347.079 360.582 346.074 360.75 344.902C360.917 343.897 362.257 343.06 363.597 343.228C364.937 343.395 365.941 344.4 365.606 345.572Z" fill="white"/>
<path d="M375.321 349.759C375.154 350.763 373.814 351.601 372.474 351.433C371.134 351.266 370.297 350.261 370.465 349.089C370.632 348.084 371.972 347.247 373.312 347.414C374.651 347.749 375.489 348.754 375.321 349.759Z" fill="white"/>
<path d="M384.866 354.113C384.699 355.118 383.359 355.955 382.019 355.788C380.679 355.62 379.842 354.616 380.01 353.443C380.177 352.438 381.517 351.601 382.857 351.769C384.196 352.103 385.201 353.108 384.866 354.113Z" fill="white"/>
<path d="M374.317 340.548C374.15 341.553 372.81 342.39 371.47 342.222C370.131 342.055 369.293 341.05 369.461 339.878C369.628 338.873 370.968 338.036 372.308 338.203C373.647 338.538 374.485 339.543 374.317 340.548Z" fill="white"/>
<path d="M383.862 344.903C383.695 345.908 382.355 346.745 381.015 346.578C379.675 346.41 378.838 345.406 379.006 344.233C379.173 343.228 380.513 342.391 381.853 342.559C383.192 342.726 384.03 343.898 383.862 344.903Z" fill="white"/>
<path d="M393.409 349.257C393.242 350.261 391.902 351.099 390.562 350.931C389.222 350.764 388.385 349.759 388.552 348.587C388.72 347.582 390.06 346.745 391.4 346.912C392.739 347.08 393.744 348.084 393.409 349.257Z" fill="white"/>
<path d="M411.998 347.749L389.055 360.644L396.758 364.496L419.534 350.931L411.998 347.749Z" fill="white"/>
<path d="M382.858 335.692C382.691 336.697 381.351 337.534 380.011 337.367C378.672 337.199 377.834 336.195 378.002 335.022C378.169 334.017 379.509 333.18 380.849 333.348C382.188 333.515 383.026 334.52 382.858 335.692Z" fill="white"/>
<path d="M392.403 340.046C392.236 341.051 390.896 341.888 389.556 341.72C388.217 341.553 387.379 340.548 387.547 339.376C387.714 338.371 389.054 337.534 390.394 337.701C391.733 337.869 392.738 338.873 392.403 340.046Z" fill="white"/>
<path d="M402.116 344.399C401.949 345.404 400.609 346.241 399.269 346.074C397.929 345.906 397.092 344.902 397.26 343.729C397.427 342.725 398.767 341.887 400.107 342.055C401.446 342.222 402.284 343.227 402.116 344.399Z" fill="white"/>
<path d="M389.055 360.644L411.998 347.749L413.673 348.419L390.897 361.649L389.055 360.644Z" fill="#CFEEF3"/>
<path d="M273.162 319.113C271.99 318.444 268.808 321.458 266.966 320.453C265.124 319.616 250.051 310.07 246.534 308.395C243.018 306.721 241.51 302.701 231.462 307.725C221.414 312.75 215.887 316.099 213.543 317.774C211.198 319.281 204.667 334.856 203.829 336.698C202.992 338.54 207.681 339.042 209.858 336.865C209.858 336.865 202.825 350.43 205.169 351.1C207.681 351.77 211.198 351.268 218.734 339.042C220.074 336.363 234.142 328.994 235.984 327.654C227.945 336.363 226.27 338.875 225.266 340.55C211.366 359.976 222.921 363.158 233.304 344.402C236.151 339.21 242.515 334.521 242.515 334.521C242.515 334.521 231.127 355.789 236.821 358.971C242.348 362.153 243.687 344.067 251.559 343.229C254.406 342.894 259.765 349.928 265.291 348.756C270.818 347.583 293.091 337.535 293.091 337.535C293.091 337.535 288.57 326.985 273.162 319.113Z" fill="#FDB6A8"/>
<path d="M233.805 318.443L216.891 326.482L209.689 336.698C209.689 336.698 214.714 326.817 216.053 325.142C217.393 323.467 230.121 316.266 232.465 316.601C235.145 317.104 233.805 318.443 233.805 318.443Z" fill="#FF9986"/>
<path d="M234.812 325.478C234.812 325.478 220.409 332.846 217.395 338.54C214.38 344.234 213.543 346.076 213.543 346.076C213.543 346.076 216.725 342.057 219.07 338.205C221.917 335.191 233.639 329.162 235.817 327.487C236.654 326.817 236.989 325.98 236.821 325.478C236.486 324.64 234.812 325.478 234.812 325.478Z" fill="#FF9986"/>
<path d="M242.179 333.851C242.179 333.851 242.346 332.009 240.504 333.181C238.662 334.354 235.312 338.205 233.303 344.234C236.82 339.378 242.514 334.354 242.514 334.354L242.179 333.851Z" fill="#FF9986"/>
<path d="M7.89128 257.149C0.187642 255.475 -1.98943 261.001 1.86239 268.035C7.38891 277.916 38.036 334.688 40.548 339.042C44.0649 345.239 46.0745 350.598 63.6589 355.789C81.5782 361.149 170.505 386.604 177.539 388.614C182.73 390.121 202.659 396.317 193.616 379.57C184.573 362.823 155.265 304.711 153.256 300.524C151.078 296.337 150.576 290.811 137.513 287.796C124.116 284.782 17.6046 259.494 7.89128 257.149Z" fill="#C3DEE7"/>
<path d="M190.534 144.139H196.229V138.445H190.534V144.139Z" fill="#DEEDF2"/>
<path d="M438.624 312.079C438.624 314.423 436.782 316.098 434.605 316.098C432.261 316.098 430.586 314.256 430.586 312.079C430.586 309.734 432.428 308.059 434.605 308.059C436.782 307.892 438.624 309.734 438.624 312.079Z" fill="#9BC3D3"/>
<path d="M516.666 36.2545C516.666 38.934 514.154 40.9436 511.475 40.2738C510.135 39.9388 508.963 38.7665 508.628 37.4268C507.958 34.7472 509.968 32.2352 512.647 32.2352C514.824 32.0677 516.666 33.9099 516.666 36.2545Z" fill="#FDD114"/>
<path d="M232.636 246.431C232.636 246.431 239 240.569 240.005 235.378C238.162 223.655 236.153 218.631 234.31 200.544C232.301 212.267 230.626 219.133 224.43 227.674C228.282 234.54 230.626 239.23 232.636 246.431Z" fill="#9C1552"/>
</svg>
